<svg xmlns="http://www.w3.org/2000/svg" xml:space="preserve" id="_x38_52400a4-eebe-4cbd-8fcc-42c479930bf1" x="0" y="0" style="enable-background:new 0 0 430 280" version="1.1" viewBox="0 0 430 280"><style>.st1{fill:#143568}.st2{fill:#16386e}.st4{fill:#fff}.st5{fill:#e7edf7}.st7{fill:#fdde00}.st9{fill:#54ad47}.st10{fill:#41494d}.st11{fill:#c6e2f8}.st12{fill:#b5d9f6}.st14{fill:#1157ca}.st15{fill:#0e4199}.st16{fill:#088542}.st18{fill:#263238}.st19{fill:#e49548}.st21{fill:none;stroke:#d48845;stroke-width:.466;stroke-linecap:round;stroke-miterlimit:10}.st23{fill:#ffc200}</style><path d="m0 220.1 107.5-.2 107.5-.1 107.5.1 107.5.2-107.5.2-107.5.1-107.5-.1z" style="opacity:.15"/><path d="M113.5 71.2H32.1V15.5h81.4v55.7zm-80.8-.7h80.1V16.1H32.7v54.4z" class="st1"/><path d="M38.4 19c0 .9-.7 1.6-1.6 1.6-.9 0-1.6-.7-1.6-1.6 0-.9.7-1.6 1.6-1.6.9 0 1.6.7 1.6 1.6zM45.1 19c0 .9-.7 1.6-1.6 1.6-.9 0-1.6-.7-1.6-1.6 0-.9.7-1.6 1.6-1.6.8 0 1.5.7 1.6 1.6zM51.7 19c0 .9-.7 1.6-1.6 1.6-.9 0-1.6-.7-1.6-1.6 0-.9.7-1.6 1.6-1.6.9 0 1.6.7 1.6 1.6zM32.4 21.9h80.8v.6H32.4z" class="st1"/><path d="M7.3 154.9c.7-.5 1.7-.5 2.4 0 .2.1.4.2.6.4s.4.2.6.3c.8.4 1.3 1.1 1.4 2v1.1c0 1 .9 1.8 1.9 1.8l6-.2c1 0 1.8-.9 1.8-1.9v-1.2c0-.9.5-1.7 1.2-2.1.4-.2.8-.5 1.2-.8.7-.5 1.7-.6 2.4-.2l1 .5c.9.5 2 .1 2.5-.8l2.9-5.3c.5-.9.1-2-.8-2.5l-1-.5c-.8-.4-1.2-1.2-1.2-2.1V142c-.1-.9.3-1.7 1.1-2.2l1-.6c.9-.5 1.1-1.7.6-2.6l-3.2-5.1c-.5-.9-1.7-1.1-2.6-.6l-1 .6c-.7.4-1.7.4-2.4 0-.2-.1-.4-.3-.7-.4l-.7-.3c-.8-.4-1.3-1.1-1.3-2v-1.1c0-1-.9-1.8-1.9-1.8l-6 .2c-1 0-1.8.9-1.8 1.9v1.1c0 .9-.5 1.7-1.2 2.1-.4.2-.9.5-1.3.8-.7.5-1.6.5-2.4.1l-1-.5c-.9-.5-2-.1-2.5.8L0 137.7c-.5.9-.1 2 .8 2.5l1 .5c.8.4 1.3 1.2 1.2 2.1v1.4c.1.9-.3 1.7-1.1 2.2l-1 .6c-.9.5-1.1 1.7-.6 2.6l3.2 5.1c.5.9 1.7 1.1 2.6.6l1.2-.4zm2-14.5c1.6-4.2 6.4-6.3 10.6-4.6 3.8 1.6 5.8 6 4.5 9.9-1.4 4.3-6.2 6.6-10.4 5-.7-.3-1.3-.6-1.9-1.1-1.8-1.3-2.7-3.5-2.7-5.7l-.1-3.5zM50.2 115c.3-.5.9-.9 1.6-.8h1c.6 0 1.2.3 1.6.8l.3.5c.4.8 1.4 1 2.2.6l3.4-1.9c.8-.4 1-1.4.6-2.2l-.3-.5c-.3-.6-.3-1.2.1-1.8.2-.3.4-.6.5-.9.3-.6.9-.9 1.5-.9h.6c.9 0 1.6-.7 1.6-1.6v-3.9c0-.9-.7-1.6-1.6-1.6h-.6c-.6 0-1.2-.4-1.5-.9-.2-.3-.3-.6-.5-.9-.4-.5-.4-1.2-.1-1.8l.3-.5c.4-.8.2-1.8-.6-2.2l-3.4-1.9c-.8-.4-1.7-.2-2.2.6l-.3.5c-.3.5-.9.9-1.6.8h-1c-.6 0-1.2-.3-1.6-.8l-.3-.5c-.4-.8-1.4-1-2.2-.6l-3.4 1.9c-.8.4-1 1.4-.6 2.2l.3.5c.3.6.3 1.2-.1 1.8-.2.3-.4.6-.5.9-.3.6-.9.9-1.5.9h-.6c-.9 0-1.6.7-1.6 1.6v3.9c0 .9.7 1.6 1.6 1.6h.6c.6 0 1.2.4 1.5.9.2.3.3.6.5.9.4.5.4 1.2.1 1.8l-.3.5c-.4.8-.2 1.8.6 2.2l3.4 1.9c.8.4 1.7.2 2.2-.6l.3-.5zm-3.7-10.7c0-3.3 2.7-5.9 6-5.8 3 .1 5.5 2.6 5.6 5.6.1 3.9-3.6 7-7.6 5.7-2.5-.7-4-3-4-5.5zM405.4 34.4c0-2.3-.1-4.5-.2-6.7h-19.8c-.1 2.2-.2 4.4-.2 6.7s.1 4.7.2 6.9h19.7c.2-2.3.3-4.6.3-6.9zM428.5 27.7h-19.7c.2 2.2.2 4.5.2 6.7 0 2.3-.1 4.6-.2 6.9h19.8c.3 0 .5.1.8.2.5-2.3.7-4.7.7-7.1 0-2.4-.2-4.7-.7-6.9-.3.1-.6.2-.9.2zM404.8 44.9h-19.1c.6 5 1.5 9.6 2.8 13.5 1.9 5.5 4.5 9 6.7 9s4.8-3.4 6.7-9c1.4-3.9 2.4-8.5 2.9-13.5zM385.7 24.1h19.1c-.6-5.1-1.5-9.8-2.8-13.7-1.9-5.5-4.5-9-6.7-9s-4.8 3.4-6.7 9c-1.4 3.9-2.3 8.6-2.9 13.7zM408.4 24.1h20C424.5 11.4 413.6 1.9 400.2 0c4.3 4.1 7.1 13.6 8.2 24.1zM408.4 44.9c-1.1 10.4-3.9 19.8-8.3 23.9 13.3-1.9 24.2-11.3 28.2-23.9h-19.9zM382.1 44.9h-20c4 12.6 14.9 22 28.2 23.9-4.3-4.1-7.1-13.5-8.2-23.9zM362.3 41.3h19.5c-.2-2.3-.2-4.6-.2-6.9 0-2.2.1-4.5.2-6.7h-19.4c-.4 0-.8-.1-1.1-.4-.5 2.3-.7 4.6-.7 7.1s.3 4.9.8 7.2c.2-.2.5-.3.9-.3zM362.3 24.1h19.8c1.1-10.5 3.9-20 8.3-24.1C377 1.9 366 11.5 362.1 24.1h.2z" class="st2"/><ellipse id="freepik--Shadow--inject-16_2_" cx="257.1" cy="272.3" class="st2" rx="108.5" ry="7.7"/><g id="freepik--Device--inject-16_2_"><path d="M89 41.1h255.4c4.1 0 7.5 3.3 7.5 7.5v171.5H81.6V48.6c0-4.1 3.3-7.5 7.4-7.5z" style="fill:#263237"/><path d="M43.9 236.1h345.7v7.6c0 2.7-2.2 5-5 5H48.8c-2.7 0-5-2.2-5-5v-7.6z" class="st1"/><path d="m43.9 236.1 35.7-13.7h274.3l35.7 13.7z" class="st2"/><path d="m82.8 231.2 23-8.8h221.8l23.1 8.8z" class="st1"/><path d="M96.9 54.7h239.7v151.8H96.9z" class="st4"/><path d="M96.9 54.7h239.7v5.8H96.9z" class="st5"/><path d="M101.3 57.6c0 .8-.6 1.5-1.4 1.5-.8 0-1.5-.6-1.5-1.4 0-.8.6-1.4 1.4-1.5.8 0 1.5.6 1.5 1.4z" style="fill:#e5442c"/><path d="M107.2 57.6c0 .8-.6 1.5-1.4 1.5-.8 0-1.5-.6-1.5-1.4 0-.8.6-1.5 1.4-1.5.9 0 1.5.6 1.5 1.4z" class="st7"/><path d="M113.1 57.6c0 .8-.6 1.5-1.4 1.5-.8 0-1.5-.6-1.5-1.4 0-.8.6-1.5 1.4-1.5.9 0 1.5.6 1.5 1.4z" style="fill:#6eb736"/><path d="M158.5 113.7h117.4v16H158.5z" class="st4"/><path d="M276.3 130h-118v-16.6h118V130zm-117.5-.6h116.8V114H158.8v15.4z" class="st5"/><path d="M259.9 113.7h16v16h-16z" class="st9"/><path d="m273 126.2-1.5 1.1-2.7-3.6-1-1.3.6-.3c.3-.3.6-.6.8-1l1.1 1.4 2.7 3.7z" class="st4"/><path d="M270.1 117.7c-1.4-1.8-3.9-2.1-5.7-.8-1.8 1.4-2.1 3.9-.8 5.7 1.2 1.6 3.4 2 5.1 1.1.2-.1.4-.2.6-.4.3-.2.6-.5.8-.9 1.1-1.4 1.1-3.3 0-4.7zm-1.7 4.3-.6.3c-1.2.5-2.6-.1-3.1-1.3s.1-2.6 1.3-3.1 2.6.1 3.1 1.3c.2.6.2 1.2 0 1.8-.1.5-.4.8-.7 1z" class="st4"/><path d="M161.9 116.9h.9v9.7h-.9z" class="st10"/><path d="M158.5 136h27.1v8.6h-27.1z" class="st5"/><path d="M203.7 136h27.1v8.6h-27.1z" class="st9"/><path d="M249.2 136h27.1v8.6h-27.1z" class="st5"/><path d="M179.8 96.4h74.9v5.2h-74.9z" class="st10"/><path d="m351.9 220.1 2 2.3H79.6l2-2.3z" class="st2"/></g><path d="M59.9 129.5h70.4V203H59.9z" class="st11"/><path d="M59.9 129.5h70.4v6.7H59.9z" class="st9"/><path d="M64.9 140.3h60.5V195H64.9z" class="st4"/><path d="M79.6 155c-.7 3.5 1.6 6.9 5.1 7.6 3.5.7 6.9-1.6 7.6-5.1.7-3.5-1.6-6.9-5.1-7.6-.8-.2-1.7-.2-2.5 0-2.6.5-4.6 2.5-5.1 5.1zM81.9 195h43.4l-21.7-35.7z" class="st12"/><path d="M64.9 195h35.8l-17.9-21.7z" class="st12"/><path d="M305.7 137.3h74.5v38.3h-74.5z" class="st11"/><path d="M310.2 142.2h31.3v28.3h-31.3z" class="st4"/><path d="M318.7 151.4c-.4 1.8.8 3.6 2.6 3.9 1.8.4 3.6-.8 3.9-2.6.4-1.8-.8-3.6-2.6-3.9-.4-.1-.9-.1-1.3 0-1.3.2-2.4 1.3-2.6 2.6zM319 170.5h22.5l-11.3-15.2z" class="st12"/><path d="M310.2 170.5h18.5l-9.2-9.9z" class="st12"/><path d="M346.7 142.2h26.6v1.9h-26.6zM346.7 147.6h26.6v1.9h-26.6zM346.7 152.9h26.6v1.9h-26.6zM346.7 158.3h26.6v1.9h-26.6z" class="st4"/><g id="freepik--Character--inject-16_2_"><path d="M260.7 274.4c1.3.4 38.5-.1 39.9-1 .5-.3.8-5.8.9-12.3v-5l-1.8-19.3-24.9.2 2.5 19.1v.8l.2 4v.4s-14.2 6.6-15.6 7.7-2.5 5-1.2 5.4z" style="fill:#ad6359"/><path d="M260.7 274.4c1.3.4 38.5-.1 39.9-1 .5-.3.8-5.8.9-12.3v-5l-24.2.1v.8l.2 4v.4s-14.2 6.6-15.6 7.7-2.5 4.9-1.2 5.3z" class="st14"/><path d="m281.4 274.4 5.9-.1c7.1-.2 12.9-.5 13.4-.8.5-.4.8-5.6.9-12.1v-.5c-3.4 2.3-15 10-20.2 13.5z" class="st15"/><path d="M275.9 261h26.8s-5.4-62.6-5.2-63.7c.3-1.4 10.3-40.6 12.2-48 2.9-11.1 5.1-19.7 5.1-19.7h-22.7s-2.7 8.4-6 19.3c-5.4 17.8-12.7 42.2-13.4 48.1-1.2 9.6 3.2 64 3.2 64z" class="st9"/><path d="M293.7 213.6c.4 4.1.8 8.2 1.1 12.3.8 8.2 1.5 16.3 2.2 24.5.1 1 .2 2.1.3 3.1 0 .3-.5.3-.5 0-.9-8.1-1.6-16.2-2.3-24.2s-1.5-16.1-2.3-24.1c-.2-2-.4-4-.4-6.1 0-1.9.2-3.8.7-5.6.9-3.9 2.2-7.7 3.3-11.5 2.3-7.7 4.7-15.5 7-23.2 1.2-3.9 2.4-7.7 3.5-11.6.6-2 1.2-3.9 1.8-5.8.6-1.9 1.3-3.8 1.8-5.7.2-.8.3-.4.1.6-.6 2-1.1 4-1.7 6-1.2 4-2.3 7.9-3.5 11.8-2.3 7.9-4.7 15.7-7 23.6-1.2 3.9-2.4 7.9-3.5 11.8-.6 1.9-1.1 3.8-1.4 5.7-.3 2-.4 4.1-.2 6.1" class="st16"/><path d="M294.7 129.5c1.4 10.8 3.3 47 3.7 63.9 2.6-10.3 9.7-38.1 11.3-44.2 2.7-10.2 4.8-18.4 5.1-19.6v-.1h-20.1z" style="fill:#319746"/><path d="M288.7 274.4c1.3.4 38.5-.1 39.9-1 .5-.3.8-5.8.9-12.3v-5l-1.8-19.3-24.9.2 2.5 19.1v.8l.2 4v.4s-14.2 6.6-15.6 7.7-2.5 5-1.2 5.4z" class="st14"/><path d="M292.8 129.5s.5 10.9 3 19.5c.2.7.4 1.4.7 2.1 0 0-.3-.3 3.6 2.2 0 0-1.5 43.2-1.6 45.8-.2 9.7 6.8 62.3 6.8 62.3l26.8.1s-9.6-59.7-9.5-63.2c.1-5.7 3.4-30.4 2.4-48.7-.4-7-2.3-13.8-5.4-20l-26.8-.1z" class="st9"/><path d="M320.3 200.8c.6 8.4 2.1 16.7 3.3 25 1.2 8.3 2.5 16.6 3.5 24.9.1 1.1.3 2.1.4 3.2-1.5-8.2-2.7-16.5-3.9-24.7-1.3-8.2-2.7-16.4-3.5-24.7-.9-8.3-.5-16.5.3-24.7.8-7.9 1.9-15.9 1.9-23.9 0-7.4-.7-15-3.4-22-.3-.9-.7-1.9-1.1-2.8 0-.1.1-.1.1 0 3.4 6.5 4.7 13.9 4.9 21.2.3 7.9-.6 15.8-1.5 23.6" class="st16"/><path d="M295.4 150.4c2.7 1.1 5.2 2.5 7.7 4 .1.1 0 .2-.1.2-2.6-1.2-5.2-2.5-7.7-3.9-.1 0-.1-.2-.1-.2 0-.1.1-.1.2-.1z" class="st18"/><path d="M295.2 141.2c.2 1 .4 1.9.6 2.8s.3 1.8.6 2.7c.2.9.6 1.6 1.2 2.2.3.3.7.6 1.1.9.2.2.4.3.6.5 0-.1 0-.3-.1-.4l-.2-1.1c-.1-.8-.3-1.6-.4-2.4-.2-1.6-.5-3.2-.8-4.7.4 1.5.8 3.1 1.2 4.6.2.8.8 4.6.8 4.8s0 .6.1.8v.9c0 .1-.1.1-.1 0-.1-.3-.2-.5-.2-.8-.1-.3-.1-.5-.2-.8v-.3c-.4-.2-.7-.5-1.1-.8-.3-.3-.8-.5-1.1-.8-.7-.6-1.1-1.3-1.4-2.1-.2-.9-.4-1.8-.4-2.7 0-1.1-.1-2.2-.2-3.3-.1 0 0 0 0 0z" class="st18"/><path d="M297.3 100.1c.1 4.9-3 28-7.7 33.3-6.2 7.1-17.3 16.6-19.5 16.2-2.1-.3-9.3-12.6-8.9-13.8.7-2.2 15.5-10.7 17.3-12.5 1.2-1.2 8.2-14.9 12.2-22 3.5-6.3 6.5-7.9 6.6-1.2z" class="st19"/><path d="m295.9 114.3-14.1-.8s7.9-13.3 11.4-16.5c3.9-3.7 4.9-.9 4.8 4.2-.1 5-2.1 13.1-2.1 13.1z" class="st14"/><path d="M298 101.2c-.1 5.1-2.1 13.1-2.1 13.1l-8.2-.5 7.6-18.3c2.1-.9 2.8 1.6 2.7 5.7z" class="st15"/><path d="M286.6 142.7c.6.6 38.4-1.4 38.6-1.6.5-.7-12.7-40.3-21.5-46.7-1.9-1.4-7.3-.1-8.6 1.2-.8.8-2.6 6.1-3.8 10.4-2.4 8.6-5.2 36.1-4.7 36.7z" class="st14"/><path d="M309.6 102.8c-.2-.4-.3-.8-.3-1.2v-.1c.1.2.2.4.4.6 0 .2 0 .4-.1.7zm-11.8 26.7c-.1.4-.1.8 0 1.2l.3 1.2c.1-.4.1-.8 0-1.2 0-.5-.1-.8-.3-1.2zm10.6-6.7c-.1.4-.1.8 0 1.2l.3 1.2c.1-.8 0-1.6-.3-2.4zm.7 16.3c-.1.8 0 1.6.3 2.4.1-.4.1-.8 0-1.2 0-.5-.2-.9-.3-1.2zm11.5-7.1c-.1.4-.1.8 0 1.2l.3 1.2c.1-.4.1-.8 0-1.2 0-.4-.2-.8-.3-1.2zm-25.3-22.2c-.1.8 0 1.6.3 2.4.1-.4.1-.8 0-1.2 0-.4-.1-.8-.3-1.2zm0-12.5c-.1.8 0 1.6.3 2.4.1-.4.1-.8 0-1.2 0-.5-.1-.9-.3-1.2zm19.3 16.6c-.1.4-.1.8 0 1.2l.3 1.2c.1-.8 0-1.6-.3-2.4zm-11-7.2c.4.1.8.1 1.2 0 .4 0 .8-.2 1.2-.3-.8-.1-1.6 0-2.4.3zm-4.9-12.1c.4.1.8.1 1.2 0l1.2-.3c-.4-.1-.8-.1-1.2 0-.4 0-.8.1-1.2.3zm-7.4 11.1c0 .1-.1.2-.1.3h.1c.4 0 .8-.2 1.2-.3-.4-.1-.8-.1-1.2 0zm2.4 12.7c.4.1.8.1 1.2 0l1.2-.3c-.4-.1-.8-.1-1.2 0-.4 0-.8.1-1.2.3zm11.7-1c.8.1 1.6 0 2.4-.3-.4-.1-.8-.1-1.2 0-.5 0-.9.2-1.2.3zm-3 18.9c.8.1 1.6 0 2.4-.3-.8-.1-1.6 0-2.4.3zm11.8-8.4c.4.1.8.1 1.2 0l1.2-.3c-.8-.1-1.7 0-2.4.3zm-24.6 13.3c.4.1.8.1 1.2 0l1.2-.3c-.4-.1-.8-.1-1.2 0-.5 0-.9.1-1.2.3zm-.9-9.9c.4.1.8.1 1.2 0 .4 0 .8-.2 1.2-.3-.8-.2-1.6 0-2.4.3zm15.2-33c-.6.5-1.1 1.2-1.5 1.9.7-.5 1.2-1.1 1.5-1.9zm-14 13.9c0 .2-.1.4-.1.6.1-.1.2-.2.3-.4.3-.3.5-.7.6-1.1-.3.3-.5.6-.8.9zm21-2.2c-.6.5-1.1 1.2-1.5 1.9.3-.2.6-.5.9-.9.3-.3.5-.7.6-1zm-10.1 11.2c-.6.5-1.1 1.2-1.5 1.9.3-.2.6-.5.9-.9.3-.2.5-.6.6-1zm-6.2 13.8c-.6.5-1.1 1.2-1.5 1.9.7-.5 1.2-1.2 1.5-1.9zm16.5-3.7c-.6.5-1.1 1.2-1.5 1.9.7-.5 1.2-1.1 1.5-1.9zm11.8 6.8c-.6.5-1.1 1.2-1.5 1.9.7-.4 1.2-1.1 1.5-1.9zm-34.2-17.6v.3l.6.3-.6-.6zm26.8 1.1c-.3-.3-.5-.6-.9-.9-.3-.3-.7-.5-1.1-.6.5.6 1.2 1.1 2 1.5zm.9 16.4c-.2-.3-.5-.6-.9-.9-.3-.3-.7-.5-1.1-.6.2.3.5.6.9.9.4.2.8.4 1.1.6zm-17.2-32.5c-.3-.3-.5-.6-.9-.9-.3-.3-.7-.5-1.1-.6.3.3.5.6.9.9.3.2.7.5 1.1.6zm5.6 23.7c-.5-.6-1.2-1.2-1.9-1.5.2.3.5.6.9.9.3.2.6.4 1 .6zm-17.8 7.6c-.1.1-.1.2-.1.3.3.2.6.4 1 .5-.3-.3-.6-.6-.9-.8zm15.6-23.1c-.2-.3-.5-.6-.9-.9-.3-.3-.7-.5-1.1-.6.6.7 1.2 1.2 2 1.5zm-8.4 12.5c-.5-.6-1.2-1.1-1.9-1.5.4.7 1.1 1.2 1.9 1.5zm5.8 15.1c-.2-.3-.5-.6-.9-.9-.3-.3-.7-.5-1.1-.6.2.3.5.6.9.9.3.3.7.5 1.1.6z" class="st4"/><path d="m258.048 124.758 5.17-4.865 28.44 30.224-5.17 4.866z" class="st15"/><path d="m307.4 164.3-7.8 7.3-19.9-21.1 7.9-7.3zM243.4 132.4c-17.8 2-33.8-10.8-35.9-28.6-2-17.8 10.8-33.8 28.6-35.9 17.8-2 33.8 10.8 35.9 28.6 2 17.9-10.8 33.9-28.6 35.9zm-6.8-60.7c-15.8 1.8-27.1 16-25.3 31.7s16 27.1 31.7 25.3c15.8-1.8 27.1-16 25.3-31.7-1.8-15.7-16-27-31.7-25.3z" class="st14"/><g style="opacity:.2"><path d="M259.9 81.3c10.4 11.1 9.9 28.5-1.2 39-11.1 10.4-28.5 9.9-39-1.2-10.4-11.1-9.9-28.5 1.2-39 11.1-10.4 28.5-9.9 39 1.2z" class="st4"/><path d="M264.4 87.7c6.9 13.5 1.6 30-11.8 37l11.8-37zM240.9 72.7l-16.2 50.7c-1.8-1.2-3.5-2.6-5-4.2-1.7-1.8-3.2-3.9-4.3-6.1l11.9-37.4c4.2-2.2 8.9-3.2 13.6-3zM257.9 79.4l-15.5 48.3c-1.8.2-3.6.2-5.4 0l16.5-51.4c1.6.9 3 1.9 4.4 3.1zM244.7 73.1 228 125.2c-.3-.1-.6-.3-.9-.4L243.7 73c.3 0 .7 0 1 .1zM219.9 81.1l-7.4 23.1c-.1-.8-.2-1.6-.2-2.5l6-18.8c.5-.6 1-1.2 1.6-1.8z" class="st11"/></g><path d="M310.2 99.4c3.2 3.7 16.6 21.9 16.6 30.3 0 5.2-13.1 20-16.5 23.4-1.5 1.5-12.1-7.7-12-10 .1-2.3 12.9-15.4 13.5-16.9 0 0-4.6-14.7-7-22.5-2.3-7.5-.6-11.3 5.4-4.3z" class="st19"/><path d="M290.2 153.4c-2 1.8-6 2.5-5.1 4.3.8 1.6 3.5.8 3.5.8s-2.8 1.9-1.5 3.4 4.1 0 4.1 0-2.4 1.5-1 2.8c1.4 1.4 4 .6 4 .6s-.4.9 1 1.4c2 .8 6-1.7 7.8-3.5 1.8-1.8 7-9.6 7.8-10.8l-11.3-11.6s-4.6 1.7-6.9 2.8c-2.2 1.1-8.6 7-7.3 8.7 1.3 1.7 5.8-2.5 7.1-3.3 1.3-.8 1.7-.6 1.4.2-.1.5-2.7 3.4-3.6 4.2z" class="st19"/><path d="M288.7 158.4s4.4-.2 7.6-5.7M299.2 155.7s-3.3 4.6-8 6.3M301.9 158.5s-2.2 4.7-7.6 6.7" class="st21"/><path d="m306.9 114.3 13.9-2.1s-9.1-12.5-12.9-15.4c-4.2-3.3-5-.4-4.3 4.6.6 5.1 3.3 12.9 3.3 12.9z" class="st14"/><path d="M304.5 106.7c.1.6.3 1.2.5 1.9.5 1.9 1 4 1.6 5.8.5 0 .9-.1 1.4-.2v-.1c-.4 0-1.1.1-1.1.1-.6-1.5-2.7-9.6-3.2-11.5.2 1.1.5 2.2.7 3.3l.1.7z" class="st15"/><path d="M259.6 137.5c.4 1 1.5 1.7 2.6 1.6 0 0-1.3 2.1-.2 3.7.6.9 2.5.7 2.5.7s-1 1.7.1 3.1c.9 1.1 2.6.8 2.6.8s-.2 2.1 1.1 3c2.6 1.8 13.2-4.6 12.5-9.4-.3-2.3-2.8-.6-2.8-.6s3-3.3 1.8-5.5c-1.3-2.2-4.4.2-4.4.2s2.9-3.2 1.4-5.4-4.3.7-4.3.7 1.4-3-.2-4.4c-2.6-2.3-5.4 4.6-8.1 5.4l-3.6-3.8c0-.1-1.9 7.8-1 9.9z" class="st19"/><path d="M272.8 126.7s.5 2.3-.4 3.6c0 0-1.9 5.3-8.9 8.1" class="st21"/><path d="M265.7 142.9s5.1-2.5 9.6-7.8c0 0 2.9-3.3 1.4-5.4-1.6-2.1-4.3.7-4.3.7" class="st21"/><path d="M275.3 135s3.3-2.3 4.4-.2-1.8 5.5-1.8 5.5c-4.8 5.2-9.5 6.5-9.5 6.5" class="st21"/><path d="M296.8 101.5c2 .3 4.9-2.8 6.2-5.4.2-.4.3-.8.2-1.2-.1-.8-.4-2.1-.8-3.6-.3-1.4-.5-2.9-.7-4.3l-8.6 3.1c.7 1.7 1.2 3.5 1.4 5.3v.7c0 1.1.3 5.2 2.3 5.4z" class="st19"/><path d="M301.3 87.1c-.1 1.8-.8 8.2-5.9 8.9-.3 0-.6.1-.9 0v-.7c-.3-1.8-.7-3.6-1.4-5.3l8.2-2.9z" style="fill:#d48845"/><path d="M301.7 77.3c1.1 3.1-.1 12.3-2.2 14.4-3.1 3.1-8.4 3.7-11.1-.1-2.6-3.7-.8-15.6 1.6-17.6 3.5-2.8 10-1.3 11.7 3.3z" class="st19"/><path d="M302 85.8c-1.7-.5-2.6-6.2-2.6-6.2s0 2.4-.4 2.4-2.3-3.4-2.5-5.7c-1.4.9-2.8 1.6-4.3 2.1-2.2.6-4.5.5-4.5.1 0-1.1 1-3.9 2.5-5 2.2-1.7 5.1-2 7.7-.9 3.5 1.4 4.4 3.6 5 5.4.4 1.7-.3 8-.9 7.8z" class="st23"/><path d="M299.7 84.7s2-3 3.3-2.3c1.4.7-.1 5-1.6 5.6-.8.4-1.7.1-2.1-.7v-.1l.4-2.5z" class="st19"/><path d="M292.3 72.4c1.1-.6 2.3-1 3.5-1.3 1.4-.3 5.7-.2 6.8.6s1.6 4.9 1.7 5.5c.1.6 0 4.2-1.2 5.2s-1.8-5.2-4-7.1-6.8-2.9-6.8-2.9z" class="st14"/><path d="M292.3 72.4s4.6 1 6.8 2.9 2.7 8 4 7.1c.6-.5.9-1.2 1-2-.4-1.8-1.3-4.5-2.9-6.3-1.5-1.7-4-2.5-6.6-2.6-.8.2-1.5.5-2.3.9z" class="st15"/><path d="M303 86c-.2-1.6-2.2-5.9-4.1-8.3-1.9-2.4-7.1-3.5-7.8-3.4-1.7.2-2.3.8-2.6.6-.3-.2 1.4-1.6 1.9-1.9s1.7-1.1 2.5-1.1c.7 0 5.4.1 7.3 2 1.8 1.9 4.6 7.3 4.2 8.7-.1.4-.5.6-.6 1.1-.1.6-.2 1.4-.4 1.9s-.4.5-.4.4z" class="st14"/><path d="M298.4 76.6c.4-.3.7-.6 1.1-.9.3-.3.6-.7.9-1.1 0 0 .1 0 0 0-.2.5-.5.9-.8 1.2-.3.4-.7.7-1.2.8 0 .1 0 0 0 0zM302.9 84.4c0-.1.1-.2.2-.3.1-.1.1-.3.1-.4 0-.3.1-.5.1-.8l.3-.6c.2-.2.3-.4.3-.7m.1-.1c0 .5-.2.9-.5 1.3-.1.3-.1.6-.2.9 0 .3-.2.5-.4.7h-.1l1.2-2.9zM302.2 82.6c.2-.2.3-.4.4-.6l.3-.6c.1-.2.2-.4.2-.7.1-.2.2-.5.3-.8 0 0 .1 0 0 0-.1.3-.1.6-.2.8-.1.2-.2.5-.3.7l-.3.6c0 .4-.2.5-.4.6 0 .1 0 .1 0 0zM301.5 81.1c.3-.3.6-.7.8-1.1l.6-1.2s.1 0 0 0c-.1.4-.3.9-.5 1.3-.1.2-.2.4-.4.5 0 .2-.2.4-.5.5.1 0 0 0 0 0zM300.8 79.6c.2-.1.3-.3.4-.5.1-.2.3-.4.4-.6l.3-.6.3-.6h.1c0 .2-.1.4-.1.7-.1.2-.2.5-.3.7-.1.2-.3.4-.4.6-.3.1-.5.3-.7.3 0 .1-.1 0 0 0zM300.2 77.7c.1-.2.3-.3.4-.5.1-.2.2-.3.4-.5.1-.2.3-.4.4-.6m0 0-.3.6c-.1.2-.2.4-.4.6-.1.2-.3.3-.4.5-.1.2-.3.3-.5.4 0 0-.1 0 0-.1.1-.2.3-.3.4-.5l1.2-1.5zM297.1 75.8c.1-.2.3-.4.5-.6.2-.2.4-.4.5-.6.4-.4.8-.7 1.2-.9 0 0 .1 0 0 0-.7.7-1.4 1.4-2.2 2.1zM296 74.4c.2-.2.3-.4.5-.6.4-.3.9-.6 1.3-.9 0 0 .1 0 0 0l-1.2.9c-.2.2-.4.3-.6.5-.2.2-.3.4-.5.6.3 0 .4-.3.5-.5zM294.6 73.9c.1-.2.3-.4.5-.6.3-.3.7-.6 1.1-.8-.4.3-.7.6-1.1.9l-.5.5c-.2.2-.3.4-.5.5.3-.1.4-.3.5-.5zM293.6 73.2l.5-.4c.2-.1.4-.3.6-.4l-.9.9c-.3.3-.5.6-.7 1m-.1-.1c.1-.4.3-.8.6-1.1l-.6 1.1zM292.4 72.9c.3-.3.7-.6 1-.7-.4.2-.7.5-.9.8-.3.3-.5.7-.7 1 0-.3.3-.7.6-1.1zM290.8 73.8c0-.1.1-.2.1-.3.1-.2.2-.3.3-.5.3-.3.6-.5.9-.8 0 0 .1 0 0 0-.3.2-.6.5-.8.8-.1.1-.2.3-.3.5-.1.2-.1.2-.2.3v.3c-.1-.1-.1-.2 0-.3zM289.8 73.9c.1-.1.2-.3.3-.4l.3-.3c.1-.1.2-.2.4-.3.1-.1.1 0 0 0-.1.1-.2.2-.3.4l-.3.4c-.1.1-.2.2-.4.2 0 .2-.1.3-.2.4m0 .1c.1-.2.1-.3.2-.4l-.2.4z" class="st15"/><path d="M239.8 133.6c-18.4 0-33.4-14.9-33.4-33.3s14.9-33.4 33.3-33.4 33.4 14.9 33.4 33.3c0 17-12.7 31.3-29.6 33.2-1.2.1-2.5.2-3.7.2zm0-64.9c-1.2 0-2.4.1-3.5.2-17.3 2-29.7 17.5-27.7 34.8s17.5 29.7 34.8 27.7c17.3-2 29.7-17.5 27.7-34.8-1.8-15.8-15.3-27.9-31.3-27.9zm0 61.2c-16.4 0-29.6-13.3-29.6-29.7 0-15.1 11.3-27.7 26.3-29.4 16.3-1.8 30.9 9.9 32.8 26.2 1.8 16.3-9.9 30.9-26.2 32.8-1.1 0-2.2.1-3.3.1zm-3.1-57.3c-15.2 1.7-26.2 15.5-24.5 30.7s15.5 26.2 30.7 24.5c15.2-1.7 26.2-15.4 24.5-30.7-1.8-15.2-15.5-26.2-30.7-24.5z" class="st14"/></g><path d="M367 79.1h-43.4V42.4l21.7-13.8L367 42.4z" style="fill:#ffc727"/><path d="M367 79.1h-43.4V42.4l21.7-13.8L367 42.4z" class="st23"/><path d="M364.6 73.2H326V23.8h28.6l10 9.4z" class="st11"/><path d="m354.6 23.8 10 9.4h-10zM329.8 32.1h21.4v1.3h-21.4zM329.8 35.3h21.4v1.3h-21.4zM329.8 38.5h21.4v1.3h-21.4zM329.8 41.7h31.4V43h-31.4zM329.8 44.9h31.4v1.3h-31.4zM329.8 48.1h31.4v1.3h-31.4zM329.8 51.3h31.4v1.3h-31.4zM329.8 54.5h31.4v1.3h-31.4zM329.8 57.7h31.4V59h-31.4zM329.8 60.9h31.4v1.3h-31.4zM329.8 64.1h31.4v1.3h-31.4zM329.8 67.4h31.4v1.3h-31.4z" class="st4"/><path d="M367 51.5V79h-43.4V51.5c1.9 1.1 3.7 2.2 5.5 3.2 1.8 1.1 3.7 2.2 5.5 3.3 2 1.2 4.1 2.5 6.1 3.8h.1c1.5.9 3 1.9 4.6 2.9 1.5-1 3-1.9 4.5-2.9h.1c2-1.3 4.1-2.5 6.1-3.8 1.8-1.1 3.7-2.2 5.5-3.3s3.5-2.1 5.4-3.2z" class="st7"/><path d="m396.4 110.2-.5-.3c-.5-.3-.9-.9-.8-1.6v-1.1c0-.6.3-1.2.8-1.6l.5-.3c.8-.4 1-1.4.6-2.2l-1.9-3.4c-.4-.8-1.4-1-2.2-.6l-.5.3c-.6.3-1.2.3-1.8-.1l-.5-.3-.5-.3c-.6-.3-.9-.9-.9-1.5v-.6c0-.9-.7-1.6-1.6-1.6h-3.9c-.9 0-1.6.7-1.6 1.6v.6c0 .6-.4 1.2-.9 1.5-.3.2-.6.3-.9.5-.5.3-1.2.4-1.8.1l-.5-.3c-.8-.4-1.8-.2-2.2.6l-1.9 3.3c-.4.8-.2 1.8.6 2.2l.5.3c.5.3.9.9.8 1.6v1.1c0 .6-.3 1.2-.8 1.6l-.5.3c-.8.4-1 1.4-.6 2.2l1.9 3.4c.4.8 1.4 1 2.2.6l.5-.3c.6-.3 1.2-.3 1.8.1l.5.3.5.3c.6.3.9.9.9 1.5v.6c0 .9.7 1.6 1.6 1.6h3.9c.9 0 1.6-.7 1.6-1.6v-.6c0-.6.4-1.2.9-1.5.3-.2.6-.3.9-.5.5-.4 1.2-.4 1.8-.1l.5.3c.8.4 1.8.2 2.2-.6l1.9-3.3c.5-.8.2-1.8-.6-2.2zm-6 .3c-1.8 3.5-6.6 4.3-9.5 1.1-1.7-1.8-1.9-4.6-.7-6.7 1.6-2.8 5.3-3.7 8.1-2 2.5 1.6 3.5 5 2.1 7.6z" class="st2"/></svg>