<svg xmlns="http://www.w3.org/2000/svg" xmlns:xlink="http://www.w3.org/1999/xlink" width="155" height="50"><defs><clipPath id="b"><path d="M0 0h155v50H0z"/></clipPath><clipPath id="c"><path d="M0 0h155v50H0z"/></clipPath><clipPath id="d"><path d="M0 0h155v50H0z"/></clipPath><clipPath id="e"><path d="M0 0h155v50H0z"/></clipPath><clipPath id="f"><path d="M0 0h155v50H0z"/></clipPath><clipPath id="g"><path d="M0 0h155v50H0z"/></clipPath><clipPath id="h"><path d="M0 0h155v50H0z"/></clipPath><clipPath id="i"><path d="M0 0h155v50H0z"/></clipPath><mask id="k"><g filter="url(#a)"><path d="M0 0h155v50H0z" style="fill:#000;fill-opacity:.988235;stroke:none"/></g></mask><mask id="m"><g filter="url(#a)"><path d="M0 0h155v50H0z" style="fill:#000;fill-opacity:.937255;stroke:none"/></g></mask><mask id="o"><g filter="url(#a)"><path d="M0 0h155v50H0z" style="fill:#000;fill-opacity:.933333;stroke:none"/></g></mask><mask id="q"><g filter="url(#a)"><path d="M0 0h155v50H0z" style="fill:#000;fill-opacity:.960784;stroke:none"/></g></mask><mask id="s"><g filter="url(#a)"><path d="M0 0h155v50H0z" style="fill:#000;fill-opacity:.933333;stroke:none"/></g></mask><mask id="u"><g filter="url(#a)"><path d="M0 0h155v50H0z" style="fill:#000;fill-opacity:.941176;stroke:none"/></g></mask><mask id="w"><g filter="url(#a)"><path d="M0 0h155v50H0z" style="fill:#000;fill-opacity:.941176;stroke:none"/></g></mask><mask id="y"><g filter="url(#a)"><path d="M0 0h155v50H0z" style="fill:#000;fill-opacity:.945098;stroke:none"/></g></mask><g id="j" clip-path="url(#b)"><path d="M18.344-.125H34.57c8.895 2.55 14.344 8.387 16.348 17.5.5 4.75.5 9.5 0 14.25-2.402 10.324-8.852 16.2-19.344 17.625-3.41.168-6.824.168-10.234 0C10.473 47.586 3.94 41.375 1.746 30.625a105.56 105.56 0 0 1 .25-13.75c2.29-8.75 7.738-14.418 16.348-17Zm0 0" style="stroke:none;fill-rule:evenodd;fill:#6440fb;fill-opacity:1"/></g><g id="l" clip-path="url(#c)"><path d="M88.73 16.125h3.997c-.043 1.836 0 3.668.125 5.5a3.956 3.956 0 0 1 1.37-.875c2.212-.64 3.919-.016 5.118 1.875.355 3.402.48 6.82.375 10.25h-3.996c.043-2.836 0-5.668-.121-8.5-.989-1.008-1.907-.926-2.746.25-.125 2.75-.168 5.5-.125 8.25H88.73v-16.75Zm0 0" style="stroke:none;fill-rule:evenodd;fill:#fefffe;fill-opacity:1"/></g><g id="n" clip-path="url(#d)"><path d="M56.285 17.125h5.988c.688 3.18 1.434 6.344 2.247 9.5.914-3.07 1.785-6.152 2.62-9.25a35.35 35.35 0 0 1 5.868-.25v15.75h-3.992c.039-3.75 0-7.5-.125-11.25-.801 3.613-1.715 7.2-2.746 10.75-.555.316-1.176.48-1.875.5-.696-.02-1.317-.184-1.872-.5-.746-3.332-1.496-6.668-2.246-10-.125 3.5-.164 7-.125 10.5h-3.742v-15.75Zm0 0" style="stroke:none;fill-rule:evenodd;fill:#fefffe;fill-opacity:1"/></g><g id="p" clip-path="url(#e)"><path d="M113.691 17.125c2.746-.043 5.493 0 8.239.125 3.777 1.082 5.605 3.625 5.488 7.625.05 3.984-1.777 6.61-5.488 7.875-2.746.125-5.493.168-8.239.125v-15.75Zm3.993 3c3.683-.496 5.511 1.086 5.492 4.75.07 3.766-1.762 5.43-5.492 5v-9.75Zm0 0" style="stroke:none;fill-rule:evenodd;fill:#fefffe;fill-opacity:1"/></g><g id="r" clip-path="url(#f)"><path d="M104.707 20.625c1.793-.14 3.543.07 5.242.625 1.07.77 1.653 1.813 1.746 3.125-1.25.043-2.5 0-3.746-.125-.543-.8-1.293-1.05-2.246-.75-.375.613-.21 1.031.5 1.25 2.117.25 3.906 1.125 5.367 2.625 1.04 2.797.164 4.672-2.62 5.625-1.77.223-3.516.137-5.243-.25-1.344-.727-2.176-1.852-2.496-3.375 1.32-.25 2.652-.332 3.996-.25.106.914.648 1.332 1.621 1.25.82.09 1.234-.242 1.246-1A110.36 110.36 0 0 1 102.711 27c-1.172-1.523-1.297-3.148-.375-4.875a7.257 7.257 0 0 1 2.371-1.5Zm0 0" style="stroke:none;fill-rule:evenodd;fill:#fefffe;fill-opacity:1"/></g><g id="t" clip-path="url(#g)"><path d="M132.91 20.625c5.324-.5 7.738 1.918 7.238 7.25h-7.488c.14 1.934 1.14 2.64 2.996 2.125.664-.652 1.496-.945 2.496-.875.664.082 1.332.168 1.996.25-1.46 3.273-3.957 4.48-7.488 3.625-2.754-1.008-4.082-3.008-3.992-6-.031-3.156 1.383-5.281 4.242-6.375Zm1 2.75c1.508-.156 2.34.512 2.496 2-1.254.043-2.5 0-3.746-.125.207-.793.621-1.418 1.25-1.875Zm0 0" style="stroke:none;fill-rule:evenodd;fill:#fefffe;fill-opacity:1"/></g><g id="v" clip-path="url(#h)"><path d="M75.254 20.875h3.992c-.039 2.75 0 5.5.125 8.25.996 1.34 1.91 1.258 2.746-.25.125-2.664.168-5.332.125-8h3.992v12c-1.25.043-2.496 0-3.742-.125a1.133 1.133 0 0 0-.5-.375c-.3.258-.633.465-.996.625-3.031.922-4.902-.121-5.617-3.125-.125-3-.168-6-.125-9Zm0 0" style="stroke:none;fill-rule:evenodd;fill:#fefffe;fill-opacity:1"/></g><g id="x" clip-path="url(#i)"><path d="M140.898 20.875c1.395-.078 2.77.008 4.118.25.625 2.336 1.25 4.668 1.87 7a89.67 89.67 0 0 0 2-7.25c1.333-.043 2.665 0 3.993.125a905.097 905.097 0 0 0-3.992 11.625 9.828 9.828 0 0 1-4.371 0 323.107 323.107 0 0 1-3.618-11.75Zm0 0" style="stroke:none;fill-rule:evenodd;fill:#fefffe;fill-opacity:1"/></g><filter id="a" width="100%" height="100%" x="0%" y="0%" filterUnits="objectBoundingBox"><feColorMatrix in="SourceGraphic" values="0 0 0 0 1 0 0 0 0 1 0 0 0 0 1 0 0 0 1 0"/></filter></defs><use xlink:href="#j" mask="url(#k)"/><path d="M38.313 22.375c.195 1.832.445 3.664.75 5.5h-1.25c.148-.656.23-1.324.25-2 .328-.879.328-1.797 0-2.75-.153.031-.235.113-.25.25-.16.074-.329.16-.497.25a66.16 66.16 0 0 0-.625 7.25 134.717 134.717 0 0 1-10.359 6c-3.402-1.95-6.77-3.95-10.11-6a95.319 95.319 0 0 0-.495-7 96.159 96.159 0 0 1-3.872-2.625 256.483 256.483 0 0 1 14.477-8.625 680.65 680.65 0 0 1 14.977 8.625c-.77.488-1.563.95-2.371 1.375a.72.72 0 0 0-.626-.25Zm0 0" style="stroke:none;fill-rule:evenodd;fill:#f7f4fe;fill-opacity:1"/><path d="M27.582 16.125a.845.845 0 0 1-.75-.375c.375-.145.625-.02.75.375Zm0 0" style="stroke:none;fill-rule:evenodd;fill:#9e84fc;fill-opacity:1"/><path d="M25.832 16.125a62.967 62.967 0 0 1 9.238 5.125 114.51 114.51 0 0 1-8.738 5.125 1.725 1.725 0 0 1-1.121-.75 2.786 2.786 0 0 1 .125-2 47.25 47.25 0 0 1 3.492-2.125c.332-.168.332-.332 0-.5a33.367 33.367 0 0 0-2.371-1.375 59.262 59.262 0 0 0-4.492 2.5 16.565 16.565 0 0 0 .25 5.25 69.743 69.743 0 0 1 3.367 2.125 3.102 3.102 0 0 0 1.75 0 140.938 140.938 0 0 0 5.988-3.625c.172.133.297.297.375.5.2.98.157 1.938-.125 2.875a75.683 75.683 0 0 1-7.238 3.875 56.53 56.53 0 0 1-6.863-4 93.22 93.22 0 0 1-.5-7 2.989 2.989 0 0 1-1.121-.875 293.305 293.305 0 0 0 7.984-5.125Zm0 0" style="stroke:none;fill-rule:evenodd;fill:#6a46fb;fill-opacity:1"/><use xlink:href="#l" mask="url(#m)"/><path d="M27.582 16.125a2.884 2.884 0 0 1 1.746 1 3.064 3.064 0 0 1-1.746-1Zm0 0" style="stroke:none;fill-rule:evenodd;fill:#a189fc;fill-opacity:1"/><path d="M29.328 17.125c.606-.059 1.024.191 1.246.75-.543-.063-.957-.313-1.246-.75Zm0 0" style="stroke:none;fill-rule:evenodd;fill:#a086fc;fill-opacity:1"/><use xlink:href="#n" mask="url(#o)"/><use xlink:href="#p" mask="url(#q)"/><path d="M30.574 17.875a6.085 6.085 0 0 1 2.496 1.375c-.351.078-.683-.004-.996-.25a7.24 7.24 0 0 1-1.5-1.125Zm0 0" style="stroke:none;fill-rule:evenodd;fill:#9b80fc;fill-opacity:1"/><path d="M38.313 22.375a16.438 16.438 0 0 1-4.743-2.625c1.711.61 3.293 1.484 4.742 2.625Zm0 0" style="stroke:none;fill-rule:evenodd;fill:#a086fc;fill-opacity:1"/><use xlink:href="#r" mask="url(#s)"/><use xlink:href="#t" mask="url(#u)"/><use xlink:href="#v" mask="url(#w)"/><use xlink:href="#x" mask="url(#y)"/><path d="M37.813 23.375c.015-.137.097-.219.25-.25.328.953.328 1.871 0 2.75a6.376 6.376 0 0 0-.25-2.5Zm0 0" style="stroke:none;fill-rule:evenodd;fill:#b4a1fd;fill-opacity:1"/></svg>