<svg xmlns="http://www.w3.org/2000/svg" width="140" height="50" version="1.0" viewBox="0 0 104.88 37.5"><defs><clipPath id="a"><path d="M.629 0h37.008v37.008H.629Zm0 0"/></clipPath></defs><g clip-path="url(#a)"><path fill="#1a064f" d="M16.914 0h4.441c.532 0 1.063.027 1.594.078.531.05 1.059.129 1.582.234.524.106 1.04.235 1.551.387.508.156 1.012.336 1.504.54.492.206.973.433 1.445.683.469.254.926.527 1.371.824a15.962 15.962 0 0 1 2.465 2.024 16.072 16.072 0 0 1 2.027 2.469c.297.44.57.898.82 1.366.25.473.481.954.684 1.446.204.492.383.996.54 1.504.152.511.28 1.027.386 1.55.106.524.184 1.051.235 1.582.05.532.078 1.063.078 1.594v4.442c0 .535-.028 1.066-.078 1.597-.051.532-.13 1.059-.235 1.578a17.294 17.294 0 0 1-.386 1.551 16.785 16.785 0 0 1-.54 1.504 15.77 15.77 0 0 1-.683 1.445 16.072 16.072 0 0 1-2.848 3.84c-.375.375-.77.735-1.183 1.07a16.01 16.01 0 0 1-4.098 2.458 16.37 16.37 0 0 1-3.055.93c-.523.1-1.05.179-1.582.234-.531.05-1.062.078-1.594.078h-4.44c-.536 0-1.067-.028-1.599-.078a17.866 17.866 0 0 1-1.578-.235 16.37 16.37 0 0 1-8.34-4.457 17.008 17.008 0 0 1-1.07-1.183 16.072 16.072 0 0 1-1.773-2.657c-.254-.468-.48-.949-.684-1.445a16.785 16.785 0 0 1-.539-1.504 14.99 14.99 0 0 1-.387-1.55 15.212 15.212 0 0 1-.234-1.579 15.573 15.573 0 0 1-.082-1.597V16.28c0-.531.027-1.062.082-1.593.05-.532.129-1.06.234-1.583.102-.523.23-1.039.387-1.55.156-.508.336-1.012.54-1.504.202-.492.429-.973.683-1.446.25-.468.523-.925.82-1.367.297-.445.613-.87.953-1.285.336-.414.695-.808 1.07-1.183.38-.38.774-.735 1.184-1.075a16.756 16.756 0 0 1 2.656-1.773c.469-.25.953-.477 1.446-.684.492-.203.992-.383 1.504-.539a17.632 17.632 0 0 1 1.55-.386 15.37 15.37 0 0 1 1.578-.235C15.848.028 16.38 0 16.914 0Zm0 0"/></g><path fill="#fff" fill-rule="evenodd" d="m10.25 17.422 1.113.648v5.2l1.11.652 1.109.648 1.11.653 1.109.648 1.11.652 1.109.649 1.109.652 1.11-.652 1.113-.649 1.109-.652 1.11-.648 1.109-.653 1.11-.648 1.108-.652v-5.2l1.11-.648v2.351a.337.337 0 0 0-.153.278.3.3 0 0 0 .133.258l-.039.117-.222.695h.89l-.222-.695-.036-.117a.296.296 0 0 0 .13-.258.338.338 0 0 0-.216-.305v-2.48l-8.87-5.203.269-.157 8.879 5.2.574-.336 1.11-.649-1.11-.652-1.11-.649-1.109-.652-1.113-.648-1.11-.649-1.109-.652-2.219-1.297-1.109-.652-1.113-.649-1.11.652-2.218 1.297-1.114.653-2.218 1.297-1.11.652-1.11.648-1.108.653-1.114.648 1.11.649Zm7.773-1.95 1.11-.652 1.11.653 1.112.648-1.113.652-2.219 1.297v1.305l1.11.648 1.11-.648 1.112-.652 1.11-.653 1.11-.648 1.109-.652.761-.446.348-.203-.941-.55-.168-.098-1.11-.653-1.11-.648-1.109-.652-1.109-.649-1.11-.652-1.113.652-1.109.649-1.11.652-1.109.648-1.11.653-1.108.648 1.109.652v5.2l1.11.648 1.109.652 1.11.649 1.108.652 1.11.649 1.11-.649 1.112-.652 1.11-.649 1.11-.652 1.109-.648V19.37l-1.11.652-1.11.649-1.109.652-1.113.649-1.11.652-2.218-1.305-1.11-.648V16.77Zm0 0"/><path fill="#1a064f" d="M45.52 24.672c-.95 0-1.868-.125-2.75-.375-.876-.258-1.579-.594-2.11-1l.938-2.094a6.3 6.3 0 0 0 1.812.907c.707.23 1.414.343 2.125.343.79 0 1.375-.113 1.75-.343.375-.239.563-.551.563-.938a.88.88 0 0 0-.344-.703c-.219-.188-.508-.336-.86-.453a17.288 17.288 0 0 0-1.39-.375c-.918-.219-1.668-.438-2.25-.656a3.726 3.726 0 0 1-1.485-1.032c-.418-.476-.625-1.117-.625-1.922 0-.695.188-1.328.563-1.89.375-.563.937-1.004 1.687-1.328.758-.332 1.688-.5 2.782-.5.77 0 1.515.093 2.234.281.727.18 1.367.437 1.922.781l-.86 2.094c-1.105-.625-2.21-.938-3.312-.938-.773 0-1.344.125-1.719.375-.367.25-.547.579-.547.985 0 .418.211.726.641.922.426.199 1.078.39 1.953.578.906.219 1.649.437 2.235.656a3.75 3.75 0 0 1 1.5 1.031c.414.461.625 1.09.625 1.891 0 .687-.196 1.312-.579 1.875-.375.562-.949 1.012-1.718 1.344-.762.32-1.688.484-2.782.484ZM56.003 15.14c1.426 0 2.52.34 3.282 1.016.757.68 1.14 1.7 1.14 3.063v5.25h-2.5v-1.14c-.5.855-1.433 1.28-2.797 1.28-.71 0-1.324-.12-1.843-.359-.512-.238-.907-.566-1.188-.984a2.603 2.603 0 0 1-.406-1.438c0-.851.32-1.523.969-2.015.644-.489 1.64-.735 2.984-.735h2.11c0-.582-.18-1.03-.532-1.343-.344-.313-.87-.47-1.578-.47-.492 0-.977.079-1.453.235a3.62 3.62 0 0 0-1.188.61l-.968-1.86c.5-.351 1.097-.625 1.797-.812a8.115 8.115 0 0 1 2.171-.297Zm-.203 7.673c.446 0 .848-.102 1.203-.313.352-.207.602-.52.75-.937v-.938h-1.812c-1.094 0-1.64.36-1.64 1.078 0 .344.128.618.39.813.27.2.64.297 1.11.297ZM74.598 15.14c1.144 0 2.054.34 2.734 1.016.676.68 1.016 1.696 1.016 3.047v5.266H75.69v-4.844c0-.726-.152-1.27-.453-1.625-.304-.363-.734-.547-1.297-.547-.625 0-1.12.203-1.484.61-.367.398-.547.996-.547 1.797v4.609h-2.656v-4.844c0-1.445-.586-2.172-1.75-2.172-.617 0-1.106.203-1.469.61-.367.398-.547.996-.547 1.797v4.609h-2.656v-9.188h2.547v1.063c.332-.383.742-.68 1.234-.89a4.248 4.248 0 0 1 1.64-.313c.657 0 1.243.133 1.767.39.519.25.94.622 1.265 1.11a3.768 3.768 0 0 1 1.422-1.11 4.547 4.547 0 0 1 1.89-.39ZM92.503 15.14c1.145 0 2.055.34 2.735 1.016.675.68 1.015 1.696 1.015 3.047v5.266h-2.656v-4.844c0-.726-.152-1.27-.453-1.625-.305-.363-.734-.547-1.297-.547-.625 0-1.121.203-1.484.61-.368.398-.547.996-.547 1.797v4.609H87.16v-4.844c0-1.445-.586-2.172-1.75-2.172-.618 0-1.106.203-1.47.61-.366.398-.546.996-.546 1.797v4.609h-2.656v-9.188h2.547v1.063c.332-.383.742-.68 1.234-.89a4.248 4.248 0 0 1 1.64-.313c.657 0 1.243.133 1.766.39.52.25.942.622 1.266 1.11a3.768 3.768 0 0 1 1.422-1.11 4.547 4.547 0 0 1 1.89-.39ZM98.643 15.281h2.657v9.188h-2.657Zm1.328-1.28c-.492 0-.89-.141-1.203-.423a1.406 1.406 0 0 1-.453-1.062c0-.426.149-.781.453-1.063.313-.28.711-.422 1.203-.422.489 0 .883.137 1.188.407.312.273.469.617.469 1.031 0 .437-.157.805-.47 1.094-.304.293-.698.437-1.187.437Zm0 0"/></svg>